<svg xmlns="http://www.w3.org/2000/svg" viewBox="0 0 240 240" role="img" aria-labelledby="title desc">
  <title id="title">Java Learning logo</title>
  <desc id="desc">A flame rising above a code cup and open book.</desc>
  <defs>
    <linearGradient id="flame" x1="80" y1="20" x2="150" y2="128" gradientUnits="userSpaceOnUse">
      <stop offset="0" stop-color="#ff8a00"/>
      <stop offset="1" stop-color="#e53914"/>
    </linearGradient>
    <linearGradient id="book" x1="38" y1="166" x2="202" y2="200" gradientUnits="userSpaceOnUse">
      <stop offset="0" stop-color="#ff8a00"/>
      <stop offset="0.55" stop-color="#ff6a00"/>
      <stop offset="1" stop-color="#d41313"/>
    </linearGradient>
    <filter id="soft-shadow" x="-20%" y="-20%" width="140%" height="150%">
      <feDropShadow dx="0" dy="4" stdDeviation="5" flood-color="#0f1a22" flood-opacity="0.16"/>
    </filter>
  </defs>

  <rect width="240" height="240" rx="38" fill="#ffffff"/>

  <g filter="url(#soft-shadow)">
    <path
      d="M122 26c16 19 15 39 1 59-10 14-27 29-30 47-3 17 8 30 23 42-29-10-49-29-43-57 4-20 22-35 37-53 13-15 19-28 12-38Z"
      fill="url(#flame)"
    />
    <path
      d="M151 82c10-16 26-22 43-21-4 20-18 33-39 37 5-8 11-16 20-25-11 4-18 8-24 9Z"
      fill="#f57c00"
    />
    <path
      d="M139 115c14-10 29-15 46-16-16 10-23 23-20 38 3 14 15 24 1 42-15 19-46 22-88 3 42 7 65-1 68-20 2-11-13-28-17-43-3-12 2-24 10-34Z"
      fill="#f04b16"
    />

    <path
      d="M70 117c-9 0-13 4-13 14v12c0 8-4 12-11 14 7 2 11 7 11 15v16c0 26 23 38 64 51 41-13 64-25 64-51v-16c0-8 4-13 11-15-7-2-11-6-11-14v-12c0-10-4-14-13-14"
      fill="none"
      stroke="#14202a"
      stroke-width="11"
      stroke-linecap="round"
      stroke-linejoin="round"
    />
    <path
      d="M79 137c18 9 50 12 69-1"
      fill="none"
      stroke="#f45112"
      stroke-width="9"
      stroke-linecap="round"
    />
    <path
      d="M106 151 88 162l18 11M134 151l18 11-18 11M125 145l-11 37"
      fill="none"
      stroke="#f57c00"
      stroke-width="9"
      stroke-linecap="round"
      stroke-linejoin="round"
    />

    <path
      d="M42 191c30-4 58-1 78 15 20-16 48-19 78-15l-12-17c-28 0-51 5-66 18-15-13-38-18-66-18l-12 17Z"
      fill="url(#book)"
    />
    <path
      d="M42 205c32-4 62-1 78 14 16-15 46-18 78-14"
      fill="none"
      stroke="#d41313"
      stroke-width="10"
      stroke-linecap="round"
    />
    <path
      d="M105 211c3 12 27 12 30 0"
      fill="none"
      stroke="#d41313"
      stroke-width="9"
      stroke-linecap="round"
    />
  </g>
</svg>
